<svg xmlns="http://www.w3.org/2000/svg" viewBox="0 0 1440 320"><path fill="#EAE0D5" fill-opacity="0.15" d="M0,160L34.3,186.7C68.6,213,137,267,206,272C274.3,277,343,235,411,218.7C480,203,549,213,617,224C685.7,235,754,245,823,208C891.4,171,960,85,1029,53.3C1097.1,21,1166,43,1234,85.3C1302.9,128,1371,192,1406,224L1440,256L1440,320L1405.7,320C1371.4,320,1303,320,1234,320C1165.7,320,1097,320,1029,320C960,320,891,320,823,320C754.3,320,686,320,617,320C548.6,320,480,320,411,320C342.9,320,274,320,206,320C137.1,320,69,320,34,320L0,320Z"></path></svg>